<svg width="268" height="44" viewBox="0 0 268 44" fill="none" xmlns="http://www.w3.org/2000/svg">
<g clip-path="url(#clip0_0_1)">
<path fill-rule="evenodd" clip-rule="evenodd" d="M8 15.2132C8 11.8717 10.7921 9.25 14 9.25C17.2078 9.25 20 11.8717 20 15.2132C20 18.5546 17.2078 21.625 14 21.625C10.7921 21.625 8 18.5546 8 15.2132Z" fill="#EF4444"/>
<path fill-rule="evenodd" clip-rule="evenodd" d="M3.36959 32.9688C3.46941 26.9324 8.18134 22.6562 14 22.6562C19.8188 22.6562 24.564 26.9326 24.6636 32.9692C24.6702 33.3695 24.4488 33.736 24.0994 33.903C20.8616 33.903 17.6133 33.903 14.017 33.903C10.4204 33.903 7.17246 33.9025 3.93374 33.9025C3.58438 33.7356 3.36297 33.3691 3.36959 32.9688Z" fill="#EF4444"/>
<path fill-rule="evenodd" clip-rule="evenodd" d="M7.69526 1.11657C8.31003 0.826902 9.04078 1.09566 9.32745 1.71687L10.8846 5.09126C11.1713 5.71246 10.9053 6.45088 10.2906 6.74056C9.6758 7.03022 8.94505 6.76146 8.65838 6.14026L7.10119 2.76587C6.81453 2.14467 7.0805 1.40625 7.69526 1.11657ZM0.0744038 9.52046C0.306402 8.87636 1.0112 8.54426 1.64861 8.7787L5.111 10.0521C5.74841 10.2865 6.07706 10.9987 5.84506 11.6428C5.61307 12.2869 4.90827 12.619 4.27086 12.3846L0.808466 11.1111C0.171057 10.8767 -0.157594 10.1645 0.0744038 9.52046ZM6.13209 18.2856C6.41876 18.9068 6.15278 19.6452 5.53802 19.9349L2.19863 21.5085C1.58387 21.7981 0.853113 21.5293 0.566443 20.9082C0.279775 20.287 0.545748 19.5485 1.16051 19.2588L4.4999 17.6853C5.11466 17.3956 5.84542 17.6644 6.13209 18.2856Z" fill="#EF4444"/>
<path fill-rule="evenodd" clip-rule="evenodd" d="M20.3047 1.11657C19.69 0.826902 18.9592 1.09566 18.6725 1.71687L17.1154 5.09126C16.8287 5.71246 17.0947 6.45088 17.7094 6.74056C18.3242 7.03022 19.055 6.76146 19.3416 6.14026L20.8988 2.76587C21.1855 2.14467 20.9195 1.40625 20.3047 1.11657ZM27.9256 9.52046C27.6936 8.87636 26.9888 8.54426 26.3514 8.7787L22.889 10.0521C22.2516 10.2865 21.9229 10.9987 22.1549 11.6428C22.3869 12.2869 23.0917 12.619 23.7291 12.3846L27.1915 11.1111C27.8289 10.8767 28.1576 10.1645 27.9256 9.52046ZM21.8679 18.2856C21.5812 18.9068 21.8472 19.6452 22.462 19.9349L25.8014 21.5085C26.4161 21.7981 27.1469 21.5293 27.4336 20.9082C27.7202 20.287 27.4543 19.5485 26.8395 19.2588L23.5001 17.6853C22.8853 17.3956 22.1546 17.6644 21.8679 18.2856Z" fill="#EF4444"/>
</g>
<path d="M56.9119 34.5881C55.322 34.5881 53.879 34.2886 52.5831 33.6896C51.2872 33.0798 50.258 32.2031 49.4957 31.0597C48.7334 29.9053 48.3523 28.5114 48.3523 26.8778C48.3523 25.4403 48.6354 24.2751 49.2017 23.3821C49.768 22.4782 50.5249 21.7704 51.4723 21.2585C52.4197 20.7467 53.4652 20.3655 54.6087 20.1151C55.763 19.8537 56.9228 19.6468 58.0881 19.4943C59.6127 19.2983 60.8487 19.1513 61.7962 19.0533C62.7545 18.9444 63.4515 18.7647 63.8871 18.5142C64.3336 18.2637 64.5568 17.8281 64.5568 17.2074V17.0767C64.5568 15.465 64.1158 14.2126 63.2337 13.3196C62.3625 12.4266 61.0393 11.9801 59.2642 11.9801C57.4238 11.9801 55.9808 12.383 54.9354 13.1889C53.8899 13.9948 53.1548 14.8551 52.7301 15.7699L49.071 14.4631C49.7244 12.9384 50.5956 11.7514 51.6847 10.902C52.7846 10.0417 53.9825 9.44271 55.2784 9.10511C56.5852 8.75663 57.8703 8.58239 59.1335 8.58239C59.9394 8.58239 60.8651 8.6804 61.9105 8.87642C62.9669 9.06155 63.9851 9.44815 64.9652 10.0362C65.9562 10.6243 66.7784 11.5118 67.4318 12.6989C68.0852 13.8859 68.4119 15.4759 68.4119 17.4688V34H64.5568V30.6023H64.3608C64.0994 31.1468 63.6638 31.7294 63.054 32.3501C62.4441 32.9709 61.6328 33.4991 60.62 33.9347C59.6072 34.3703 58.3712 34.5881 56.9119 34.5881ZM57.5 31.125C59.0246 31.125 60.3097 30.8255 61.3551 30.2266C62.4115 29.6276 63.2064 28.8544 63.7401 27.907C64.2846 26.9595 64.5568 25.9631 64.5568 24.9176V21.3892C64.3935 21.5852 64.0341 21.7649 63.4787 21.9283C62.9342 22.0807 62.3026 22.2169 61.5838 22.3366C60.8759 22.4455 60.1844 22.5436 59.5092 22.6307C58.8449 22.7069 58.3059 22.7723 57.892 22.8267C56.8902 22.9574 55.9536 23.1697 55.0824 23.4638C54.2221 23.7469 53.5251 24.1771 52.9915 24.7543C52.4688 25.3205 52.2074 26.0937 52.2074 27.0739C52.2074 28.4134 52.7029 29.4261 53.6939 30.1122C54.6958 30.7874 55.9645 31.125 57.5 31.125ZM91.2608 23.7415V8.90909H95.1159V34H91.2608V29.7528H90.9995C90.4114 31.027 89.4966 32.1106 88.2552 33.0036C87.0137 33.8857 85.4455 34.3267 83.5506 34.3267C81.9824 34.3267 80.5885 33.9837 79.3688 33.2976C78.1491 32.6006 77.1908 31.5552 76.4938 30.1612C75.7968 28.7564 75.4483 26.9867 75.4483 24.8523V8.90909H79.3034V24.5909C79.3034 26.4205 79.8153 27.8797 80.839 28.9688C81.8735 30.0578 83.1912 30.6023 84.7921 30.6023C85.7504 30.6023 86.7251 30.3572 87.7161 29.8672C88.718 29.3771 89.5565 28.6257 90.2317 27.6129C90.9178 26.6001 91.2608 25.3097 91.2608 23.7415ZM113.089 8.90909V12.1761H100.086V8.90909H113.089ZM103.876 2.89773H107.731V26.8125C107.731 27.9015 107.889 28.7183 108.205 29.2628C108.531 29.7964 108.945 30.1558 109.446 30.3409C109.958 30.5152 110.497 30.6023 111.063 30.6023C111.488 30.6023 111.836 30.5805 112.109 30.5369C112.381 30.4825 112.599 30.4389 112.762 30.4062L113.546 33.8693C113.285 33.9673 112.92 34.0653 112.452 34.1634C111.983 34.2723 111.39 34.3267 110.671 34.3267C109.582 34.3267 108.515 34.0926 107.469 33.6243C106.435 33.156 105.575 32.4427 104.888 31.4844C104.213 30.526 103.876 29.3172 103.876 27.858V2.89773ZM123.282 18.9062V34H119.427V0.545454H123.282V12.8295H123.609C124.197 11.5336 125.079 10.5045 126.255 9.74219C127.442 8.96899 129.021 8.58239 130.992 8.58239C132.702 8.58239 134.199 8.92543 135.484 9.6115C136.769 10.2867 137.766 11.3267 138.474 12.7315C139.192 14.1255 139.552 15.9006 139.552 18.0568V34H135.697V18.3182C135.697 16.3253 135.179 14.7843 134.145 13.6953C133.121 12.5954 131.7 12.0455 129.881 12.0455C128.618 12.0455 127.486 12.3123 126.484 12.8459C125.493 13.3795 124.709 14.1581 124.131 15.1818C123.565 16.2055 123.282 17.447 123.282 18.9062ZM146.605 43.4091V8.90909H150.329V12.8949H150.786C151.07 12.4593 151.462 11.9039 151.963 11.2287C152.474 10.5426 153.204 9.93277 154.151 9.39915C155.11 8.85464 156.406 8.58239 158.039 8.58239C160.152 8.58239 162.014 9.11056 163.626 10.1669C165.238 11.2232 166.495 12.7206 167.399 14.6591C168.303 16.5975 168.755 18.8845 168.755 21.5199C168.755 24.1771 168.303 26.4804 167.399 28.4297C166.495 30.3681 165.243 31.871 163.642 32.9382C162.041 33.9946 160.195 34.5227 158.105 34.5227C156.493 34.5227 155.202 34.2559 154.233 33.7223C153.264 33.1778 152.518 32.5625 151.995 31.8764C151.472 31.1795 151.07 30.6023 150.786 30.1449H150.46V43.4091H146.605ZM150.394 21.4545C150.394 23.3494 150.672 25.0211 151.227 26.4695C151.783 27.907 152.594 29.0341 153.661 29.8509C154.729 30.6567 156.035 31.0597 157.582 31.0597C159.194 31.0597 160.539 30.6349 161.617 29.7855C162.706 28.9252 163.522 27.7708 164.067 26.3224C164.622 24.8632 164.9 23.2405 164.9 21.4545C164.9 19.6903 164.628 18.1004 164.083 16.6847C163.55 15.258 162.738 14.1309 161.649 13.3033C160.571 12.4647 159.215 12.0455 157.582 12.0455C156.014 12.0455 154.696 12.4429 153.629 13.2379C152.561 14.022 151.756 15.1219 151.211 16.5376C150.667 17.9425 150.394 19.5814 150.394 21.4545ZM184.829 34.5227C182.564 34.5227 180.576 33.9837 178.867 32.9055C177.168 31.8274 175.839 30.3191 174.881 28.3807C173.933 26.4422 173.46 24.1771 173.46 21.5852C173.46 18.9716 173.933 16.6901 174.881 14.7408C175.839 12.7914 177.168 11.2777 178.867 10.1996C180.576 9.12145 182.564 8.58239 184.829 8.58239C187.094 8.58239 189.076 9.12145 190.775 10.1996C192.485 11.2777 193.813 12.7914 194.761 14.7408C195.719 16.6901 196.198 18.9716 196.198 21.5852C196.198 24.1771 195.719 26.4422 194.761 28.3807C193.813 30.3191 192.485 31.8274 190.775 32.9055C189.076 33.9837 187.094 34.5227 184.829 34.5227ZM184.829 31.0597C186.55 31.0597 187.965 30.6186 189.076 29.7365C190.187 28.8544 191.009 27.6946 191.543 26.2571C192.076 24.8196 192.343 23.2623 192.343 21.5852C192.343 19.9081 192.076 18.3454 191.543 16.897C191.009 15.4486 190.187 14.2779 189.076 13.3849C187.965 12.4919 186.55 12.0455 184.829 12.0455C183.108 12.0455 181.693 12.4919 180.582 13.3849C179.471 14.2779 178.649 15.4486 178.115 16.897C177.582 18.3454 177.315 19.9081 177.315 21.5852C177.315 23.2623 177.582 24.8196 178.115 26.2571C178.649 27.6946 179.471 28.8544 180.582 29.7365C181.693 30.6186 183.108 31.0597 184.829 31.0597ZM202.083 34V8.90909H205.808V12.6989H206.069C206.526 11.4574 207.354 10.45 208.552 9.67684C209.75 8.90364 211.1 8.51704 212.603 8.51704C212.886 8.51704 213.24 8.52249 213.665 8.53338C214.089 8.54427 214.411 8.56061 214.629 8.58239V12.5028C214.498 12.4702 214.198 12.4212 213.73 12.3558C213.273 12.2796 212.788 12.2415 212.276 12.2415C211.057 12.2415 209.968 12.4974 209.009 13.0092C208.062 13.5102 207.31 14.2071 206.755 15.1001C206.21 15.9822 205.938 16.9896 205.938 18.1222V34H202.083ZM231.683 8.90909V12.1761H218.68V8.90909H231.683ZM222.469 2.89773H226.325V26.8125C226.325 27.9015 226.482 28.7183 226.798 29.2628C227.125 29.7964 227.539 30.1558 228.04 30.3409C228.552 30.5152 229.091 30.6023 229.657 30.6023C230.082 30.6023 230.43 30.5805 230.702 30.5369C230.975 30.4825 231.192 30.4389 231.356 30.4062L232.14 33.8693C231.879 33.9673 231.514 34.0653 231.045 34.1634C230.577 34.2723 229.984 34.3267 229.265 34.3267C228.176 34.3267 227.109 34.0926 226.063 33.6243C225.029 33.156 224.168 32.4427 223.482 31.4844C222.807 30.526 222.469 29.3172 222.469 27.858V2.89773ZM244.865 34.5881C243.275 34.5881 241.832 34.2886 240.536 33.6896C239.24 33.0798 238.211 32.2031 237.449 31.0597C236.687 29.9053 236.305 28.5114 236.305 26.8778C236.305 25.4403 236.589 24.2751 237.155 23.3821C237.721 22.4782 238.478 21.7704 239.425 21.2585C240.373 20.7467 241.418 20.3655 242.562 20.1151C243.716 19.8537 244.876 19.6468 246.041 19.4943C247.566 19.2983 248.802 19.1513 249.749 19.0533C250.708 18.9444 251.405 18.7647 251.84 18.5142C252.287 18.2637 252.51 17.8281 252.51 17.2074V17.0767C252.51 15.465 252.069 14.2126 251.187 13.3196C250.316 12.4266 248.992 11.9801 247.217 11.9801C245.377 11.9801 243.934 12.383 242.888 13.1889C241.843 13.9948 241.108 14.8551 240.683 15.7699L237.024 14.4631C237.678 12.9384 238.549 11.7514 239.638 10.902C240.738 10.0417 241.936 9.44271 243.232 9.10511C244.538 8.75663 245.823 8.58239 247.087 8.58239C247.893 8.58239 248.818 8.6804 249.864 8.87642C250.92 9.06155 251.938 9.44815 252.918 10.0362C253.909 10.6243 254.732 11.5118 255.385 12.6989C256.038 13.8859 256.365 15.4759 256.365 17.4688V34H252.51V30.6023H252.314C252.053 31.1468 251.617 31.7294 251.007 32.3501C250.397 32.9709 249.586 33.4991 248.573 33.9347C247.56 34.3703 246.324 34.5881 244.865 34.5881ZM245.453 31.125C246.978 31.125 248.263 30.8255 249.308 30.2266C250.365 29.6276 251.16 28.8544 251.693 27.907C252.238 26.9595 252.51 25.9631 252.51 24.9176V21.3892C252.347 21.5852 251.987 21.7649 251.432 21.9283C250.887 22.0807 250.256 22.2169 249.537 22.3366C248.829 22.4455 248.138 22.5436 247.462 22.6307C246.798 22.7069 246.259 22.7723 245.845 22.8267C244.843 22.9574 243.907 23.1697 243.036 23.4638C242.175 23.7469 241.478 24.1771 240.945 24.7543C240.422 25.3205 240.161 26.0937 240.161 27.0739C240.161 28.4134 240.656 29.4261 241.647 30.1122C242.649 30.7874 243.918 31.125 245.453 31.125ZM267.257 0.545454V34H263.401V0.545454H267.257Z" fill="white"/>
<defs>
<clipPath id="clip0_0_1">
<rect width="28" height="33" fill="white" transform="translate(0 1)"/>
</clipPath>
</defs>
</svg>
