<svg width="28" height="32" viewBox="0 0 28 32" fill="none" xmlns="http://www.w3.org/2000/svg">
<path fill-rule="evenodd" clip-rule="evenodd" d="M7.99999 13.7825C7.99999 10.5423 10.7921 8 14 8C17.2078 8 20 10.5423 20 13.7825C20 17.0226 17.2078 20 14 20C10.7921 20 7.99999 17.0226 7.99999 13.7825Z" fill="#0F172A"/>
<path fill-rule="evenodd" clip-rule="evenodd" d="M3.36956 31C3.46938 25.1466 8.18131 21 14 21C19.8188 21 24.564 25.1468 24.6636 31.0004C24.6702 31.3886 24.4488 31.744 24.0994 31.9059C20.8616 31.9059 17.6133 31.9059 14.017 31.9059C10.4204 31.9059 7.17243 31.9055 3.93371 31.9055C3.58435 31.7436 3.36294 31.3882 3.36956 31Z" fill="#0F172A"/>
<path fill-rule="evenodd" clip-rule="evenodd" d="M7.69526 0.113042C8.31003 -0.167853 9.04078 0.0927639 9.32745 0.695147L10.8846 3.96728C11.1713 4.56966 10.9053 5.2857 10.2906 5.5666C9.6758 5.84749 8.94505 5.58687 8.65838 4.98449L7.10119 1.71236C6.81453 1.10998 7.0805 0.393938 7.69526 0.113042ZM0.0744039 8.26226C0.306402 7.63768 1.0112 7.31565 1.64861 7.54298L5.111 8.77781C5.74841 9.00513 6.07706 9.69573 5.84506 10.3203C5.61307 10.9449 4.90827 11.2669 4.27086 11.0396L0.808466 9.80475C0.171057 9.57743 -0.157594 8.88683 0.0744039 8.26226ZM6.13209 16.7618C6.41876 17.3642 6.15278 18.0802 5.53802 18.3611L2.19863 19.887C1.58387 20.1679 0.853113 19.9072 0.566443 19.3049C0.279775 18.7025 0.545748 17.9864 1.16051 17.7055L4.4999 16.1797C5.11466 15.8988 5.84542 16.1594 6.13209 16.7618Z" fill="#0F172A"/>
<path fill-rule="evenodd" clip-rule="evenodd" d="M20.3047 0.113042C19.69 -0.167853 18.9592 0.0927639 18.6725 0.695147L17.1154 3.96728C16.8287 4.56966 17.0947 5.2857 17.7094 5.5666C18.3242 5.84749 19.055 5.58687 19.3416 4.98449L20.8988 1.71236C21.1855 1.10998 20.9195 0.393938 20.3047 0.113042ZM27.9256 8.26226C27.6936 7.63768 26.9888 7.31565 26.3514 7.54298L22.889 8.77781C22.2516 9.00513 21.9229 9.69573 22.1549 10.3203C22.3869 10.9449 23.0917 11.2669 23.7291 11.0396L27.1915 9.80475C27.8289 9.57743 28.1576 8.88683 27.9256 8.26226ZM21.8679 16.7618C21.5812 17.3642 21.8472 18.0802 22.462 18.3611L25.8014 19.887C26.4161 20.1679 27.1469 19.9072 27.4336 19.3049C27.7202 18.7025 27.4543 17.9864 26.8395 17.7055L23.5001 16.1797C22.8853 15.8988 22.1546 16.1594 21.8679 16.7618Z" fill="#0F172A"/>
</svg>
