<svg width="21" height="24" viewBox="0 0 21 24" fill="none" xmlns="http://www.w3.org/2000/svg">
<g clip-path="url(#clip0_7_9)">
<path fill-rule="evenodd" clip-rule="evenodd" d="M5.81818 10.3369C5.81818 7.90673 7.8488 6 10.1818 6C12.5148 6 14.5455 7.90673 14.5455 10.3369C14.5455 12.767 12.5148 15 10.1818 15C7.8488 15 5.81818 12.767 5.81818 10.3369Z" fill="#EF4444"/>
<path fill-rule="evenodd" clip-rule="evenodd" d="M2.45061 23.25C2.5232 18.8599 5.95006 15.75 10.1818 15.75C14.4137 15.75 17.8647 18.8601 17.9372 23.2503C17.942 23.5415 17.781 23.808 17.5269 23.9294C15.1721 23.9294 12.8097 23.9294 10.1942 23.9294C7.57849 23.9294 5.21633 23.9291 2.8609 23.9291C2.60682 23.8077 2.44579 23.5412 2.45061 23.25Z" fill="#EF4444"/>
<path fill-rule="evenodd" clip-rule="evenodd" d="M5.59655 0.0847816C6.04366 -0.12589 6.57511 0.069573 6.7836 0.52136L7.91607 2.97546C8.12458 3.42724 7.93113 3.96427 7.48407 4.17495C7.03694 4.38562 6.50549 4.19015 6.297 3.73837L5.1645 1.28427C4.95602 0.832485 5.14945 0.295454 5.59655 0.0847816ZM0.0541118 6.19669C0.222838 5.72826 0.735418 5.48674 1.19899 5.65723L3.71709 6.58336C4.18066 6.75385 4.41968 7.2718 4.25095 7.74022C4.08223 8.20867 3.56965 8.45017 3.10608 8.2797L0.587975 7.35356C0.124405 7.18307 -0.114614 6.66512 0.0541118 6.19669ZM4.4597 12.5713C4.66819 13.0231 4.47475 13.5601 4.02765 13.7708L1.599 14.9152C1.15191 15.1259 0.620446 14.9304 0.411958 14.4787C0.203473 14.0269 0.396907 13.4898 0.844007 13.2791L3.27265 12.1348C3.71975 11.9241 4.25121 12.1195 4.4597 12.5713Z" fill="#EF4444"/>
<path fill-rule="evenodd" clip-rule="evenodd" d="M14.7671 0.0847816C14.32 -0.12589 13.7885 0.069573 13.58 0.52136L12.4476 2.97546C12.2391 3.42724 12.4325 3.96427 12.8796 4.17495C13.3267 4.38562 13.8582 4.19015 14.0666 3.73837L15.1991 1.28427C15.4076 0.832485 15.2142 0.295454 14.7671 0.0847816ZM20.3095 6.19669C20.1408 5.72826 19.6282 5.48674 19.1647 5.65723L16.6465 6.58336C16.183 6.75385 15.9439 7.2718 16.1127 7.74022C16.2814 8.20867 16.794 8.45017 17.2575 8.2797L19.7756 7.35356C20.2392 7.18307 20.4783 6.66512 20.3095 6.19669ZM15.9039 12.5713C15.6954 13.0231 15.8889 13.5601 16.336 13.7708L18.7647 14.9152C19.2117 15.1259 19.7432 14.9304 19.9517 14.4787C20.1601 14.0269 19.9668 13.4898 19.5196 13.2791L17.091 12.1348C16.6439 11.9241 16.1124 12.1195 15.9039 12.5713Z" fill="#EF4444"/>
</g>
<defs>
<clipPath id="clip0_7_9">
<rect width="20.3636" height="24" fill="white"/>
</clipPath>
</defs>
</svg>
